<svg width="24" height="24" viewBox="0 0 24 24" fill="none" xmlns="http://www.w3.org/2000/svg">
<path d="M11.9999 5V4C11.9999 3.46957 11.7892 2.96086 11.4142 2.58579C11.0391 2.21071 10.5304 2 9.99994 2C9.46951 2 8.9608 2.21071 8.58573 2.58579C8.21065 2.96086 7.99994 3.46957 7.99994 4V13.523C7.99984 13.6863 7.95973 13.8471 7.88312 13.9914C7.80651 14.1357 7.69574 14.2589 7.56048 14.3505C7.42522 14.442 7.2696 14.4991 7.10721 14.5166C6.94482 14.5341 6.78061 14.5116 6.62894 14.451L4.08594 13.434C3.76362 13.305 3.41052 13.2735 3.07045 13.3434C2.73038 13.4132 2.41831 13.5814 2.17294 13.827V13.827C1.8546 14.1451 1.66911 14.5723 1.65407 15.022C1.63903 15.4717 1.79556 15.9104 2.09194 16.249L5.30994 19.927C6.1548 20.8924 7.1963 21.6661 8.36461 22.1961C9.53292 22.7261 10.801 23.0002 12.0839 23H13.9999C16.3869 23 18.6761 22.0518 20.3639 20.364C22.0517 18.6761 22.9999 16.3869 22.9999 14V5.5C22.9999 5.10218 22.8419 4.72064 22.5606 4.43934C22.2793 4.15804 21.8978 4 21.4999 4C21.1021 4 20.7206 4.15804 20.4393 4.43934C20.158 4.72064 19.9999 5.10218 19.9999 5.5V6" stroke="currentColor" stroke-width="2" stroke-linecap="round" stroke-linejoin="round"/>
<path d="M12 11V3C12 2.46957 12.2107 1.96086 12.5858 1.58579C12.9609 1.21071 13.4696 1 14 1C14.5304 1 15.0391 1.21071 15.4142 1.58579C15.7893 1.96086 16 2.46957 16 3V11" stroke="currentColor" stroke-width="2" stroke-linecap="round" stroke-linejoin="round"/>
<path d="M16 5V4C16 3.46957 16.2107 2.96086 16.5858 2.58579C16.9609 2.21071 17.4696 2 18 2V2C18.5304 2 19.0391 2.21071 19.4142 2.58579C19.7893 2.96086 20 3.46957 20 4V11" stroke="currentColor" stroke-width="2" stroke-linecap="round" stroke-linejoin="round"/>
</svg>
