<svg xmlns="http://www.w3.org/2000/svg" height="24" width="24" viewBox="0 0 24 24"><title>time machine</title><g fill="currentColor" class="nc-icon-wrapper"><path d="M12,0A12.013,12.013,0,0,0,0,12a1,1,0,0,0,2,0,10.023,10.023,0,1,1,4.379,8.26L8.184,18a.5.5,0,0,0-.349-.809l-6.672-.568a.5.5,0,0,0-.519.65l2.042,6.377a.5.5,0,0,0,.385.339.476.476,0,0,0,.091.009.5.5,0,0,0,.391-.189l1.578-1.98A12,12,0,1,0,12,0Z" fill="currentColor"></path><path d="M12,4a1,1,0,0,0-1,1v7a1,1,0,0,0,1,1h7a1,1,0,0,0,0-2H13V5A1,1,0,0,0,12,4Z"></path></g></svg>